# xmcd CD database file
#
# Track frame offsets:
#	150
#	15567
#	31925
#	48364
#	64312
#	78867
#	93420
#	107092
#	118980
#	141422
#	155972
#	172400
#	189222
#	203145
#	218602
#	234927
#	250984
#	260817
#
# Disc length: 3730 seconds
#
# Revision: 0
# Processed by: cddbd v1.5.2PL0 Copyright (c) Steve Scherf et al.
# Submitted via: CDex 1.50beta9
#
DISCID=050e9012
DTITLE=Country Mountain Melodies - Country Mountain Melodies
DYEAR=1995
DGENRE=Country
TTITLE0=Red Wing
TTITLE1=Oh Susanna - Camptown Races
TTITLE2=Midnight on the Water
TTITLE3=Cindy
TTITLE4=Wildwood Flower
TTITLE5=When You and I Were Young Maggie
TTITLE6=My Old Kentucky Home
TTITLE7=Nine Pound Hammer
TTITLE8=Under the Double Eagle - Down Yonder
TTITLE9=Ragtime Annie
TTITLE10=Westphalia Waltz
TTITLE11=Old Joe Clark
TTITLE12=Soldiers Joy
TTITLE13=Sally Ann
TTITLE14=The Old Spinning Wheel
TTITLE15=Star of the County Down
TTITLE16=Cripple Creek
TTITLE17=Down in the Valley - On Top of Old Smoky
EXTD=YEAR: 1995
EXTT0=
EXTT1=
EXTT2=
EXTT3=
EXTT4=
EXTT5=
EXTT6=
EXTT7=
EXTT8=
EXTT9=
EXTT10=
EXTT11=
EXTT12=
EXTT13=
EXTT14=
EXTT15=
EXTT16=
EXTT17=
PLAYORDER=
